<svg width="24" height="24" class="stroke-current fill-current text-primary-300" viewBox="0 0 24 24" fill="none" xmlns="http://www.w3.org/2000/svg">
<path d="M22 12.75C22.4142 12.75 22.75 12.4142 22.75 12C22.75 11.5858 22.4142 11.25 22 11.25L22 12.75ZM11 11.25C10.5858 11.25 10.25 11.5858 10.25 12C10.25 12.4142 10.5858 12.75 11 12.75L11 11.25ZM11 14.8646L10.25 14.8646L11 14.8646ZM7.78004 16.4494L8.23754 15.8551L8.23754 15.8551L7.78004 16.4494ZM7.78004 7.55052L8.23754 8.14483L7.78004 7.55052ZM11 9.13534L11.75 9.13534L11 9.13534ZM4.05876 10.4152L4.51625 11.0095L4.51625 11.0095L4.05876 10.4152ZM4.05876 13.5848L3.60126 14.1791L4.05876 13.5848ZM22 11.25L11 11.25L11 12.75L22 12.75L22 11.25ZM4.51625 11.0095L8.23754 8.14483L7.32254 6.95622L3.60126 9.82086L4.51625 11.0095ZM10.25 9.13534L10.25 14.8646L11.75 14.8646L11.75 9.13534L10.25 9.13534ZM8.23754 15.8551L4.51625 12.9905L3.60126 14.1791L7.32254 17.0437L8.23754 15.8551ZM10.25 14.8646C10.25 15.9019 9.0595 16.4879 8.23754 15.8551L7.32254 17.0437C9.13086 18.4358 11.75 17.1467 11.75 14.8646L10.25 14.8646ZM8.23754 8.14483C9.0595 7.51208 10.25 8.09804 10.25 9.13534L11.75 9.13534C11.75 6.85328 9.13086 5.56418 7.32254 6.95622L8.23754 8.14483ZM3.60126 9.82086C2.17124 10.9217 2.17124 13.0783 3.60126 14.1791L4.51625 12.9905C3.86625 12.4901 3.86625 11.5099 4.51625 11.0095L3.60126 9.82086Z" />
</svg>
