<svg  viewBox="0 0 225 122" fill="none" xmlns="http://www.w3.org/2000/svg">
<rect x="0.5" y="0.88031" width="224.5" height="120.239" rx="16.6258" fill="white"/>
<path d="M42.7363 59.2307L41.2631 60.3394L41.2024 60.385L41.0201 60.5141L37.3599 57.7575L37.1321 57.5905C36.4243 57.0415 35.8512 56.3381 35.4564 55.5341C35.0616 54.73 34.8556 53.8465 34.854 52.9507C34.8535 52.5682 34.8917 52.1865 34.9679 51.8116C34.9993 51.6318 35.0424 51.4543 35.097 51.2801L35.1654 51.0599V50.9687L35.3552 50.3916L35.4995 49.9588C35.4957 50.0296 35.4957 50.1006 35.4995 50.1714C35.4995 50.2473 35.4995 50.3157 35.4995 50.3916C35.7554 51.8217 36.5351 53.1051 37.6865 53.991L37.7776 54.067L39.1293 54.9175C39.2081 54.9868 39.2919 55.0502 39.3799 55.1073L43.4881 58.198L43.7994 58.441L42.8578 59.1548L42.7363 59.2307Z" fill="black"/>
<path d="M48.6742 54.7433L46.0999 56.6873L45.9177 56.824L45.4848 56.4975L43.632 55.0926L43.3282 54.8724L42.8346 54.5003L39.0833 51.6678C38.3754 51.1224 37.802 50.4219 37.4071 49.6202C37.0122 48.8185 36.8063 47.9369 36.8052 47.0433C36.8043 46.6607 36.8425 46.279 36.9191 45.9042C36.9504 45.7244 36.9936 45.5468 37.0482 45.3726L37.1545 45.1069V45.0081L37.3519 44.431L37.4886 43.9982C37.4849 44.069 37.4849 44.14 37.4886 44.2108C37.485 44.2842 37.485 44.3577 37.4886 44.431C37.7453 45.8589 38.5217 47.1412 39.668 48.0304L40.959 49.0024C41.0366 49.0699 41.1177 49.1332 41.202 49.1923L45.3102 52.2829L46.0696 52.8297L46.305 53.0119L46.5859 53.217L48.6742 54.7433Z" fill="black"/>
<path d="M73.5742 69.0574C73.5741 69.4395 73.5385 69.8209 73.4679 70.1964C73.4679 70.3787 73.3843 70.5609 73.3388 70.7356L73.2628 70.9634V71.0545L73.073 71.6393L72.9287 72.0721V71.8519C72.9287 71.7835 72.9287 71.7076 72.9287 71.6393C72.6711 70.2077 71.8919 68.9225 70.7417 68.0322L70.643 67.9639L69.3521 67.1286L69.1015 66.9463L64.9933 63.8481L64.6743 63.6127L65.6235 62.8989L65.7222 62.8229L67.2258 61.6763L67.2866 61.6307L67.4688 61.494L71.129 64.2581L71.3492 64.4252C72.0471 64.978 72.6101 65.6824 72.9955 66.4849C73.381 67.2874 73.5789 68.1671 73.5742 69.0574Z" fill="black"/>
<path d="M71.6228 74.973C71.6237 75.353 71.5855 75.7322 71.5089 76.1044C71.4776 76.2867 71.4345 76.4668 71.3798 76.6436L71.3115 76.8638L71.2735 76.9549L71.0837 77.5396L70.9394 77.9725C70.9431 77.8991 70.9431 77.8256 70.9394 77.7523C70.9394 77.6839 70.9394 77.608 70.9394 77.5396C70.6554 76.1078 69.8488 74.8328 68.6765 73.963L67.3931 72.991L67.1425 72.8087L63.0343 69.7105L62.275 69.1637L62.032 68.9815L61.7586 68.7765L59.7386 67.2577L61.3333 66.0503L62.4952 65.177L62.928 65.5036L64.7885 66.9084L65.0922 67.1286L65.5858 67.5007L69.3371 70.3332C70.0463 70.8814 70.6209 71.5844 71.017 72.3885C71.4132 73.1926 71.6204 74.0766 71.6228 74.973Z" fill="black"/>
<path d="M69.6639 80.8804C69.6673 81.2602 69.6316 81.6393 69.5576 82.0119C69.5188 82.2204 69.4655 82.4259 69.3981 82.627L69.3298 82.8396C69.2562 83.0496 69.17 83.255 69.0716 83.4547C68.5863 84.4503 67.8302 85.2891 66.89 85.8747C65.9498 86.4603 64.8636 86.769 63.756 86.7655H44.6881C43.5805 86.769 42.4943 86.4603 41.5541 85.8747C40.6139 85.2891 39.8578 84.4503 39.3725 83.4547C39.2747 83.2583 39.191 83.0553 39.1219 82.8472L39.0459 82.627L38.8485 82.0422V81.9663L38.9017 82.0195C39.9672 82.9461 41.332 83.4559 42.7441 83.4547H63.7712C64.2986 83.4499 64.8118 83.2837 65.242 82.9785C65.6721 82.6733 65.9984 82.2437 66.1771 81.7474C66.3557 81.2512 66.3781 80.7121 66.2412 80.2028C66.1043 79.6935 65.8147 79.2383 65.4114 78.8984L65.3127 78.8225L63.6497 77.5695L63.4826 77.4556L61.1513 75.6711H61.0982L60.6729 75.3522L60.2401 75.0256L60.1945 74.9876L55.8357 71.6844L55.3193 71.2971L54.9245 70.9933L55.046 70.9022L57.681 68.9127L61.2804 71.6236C61.2804 71.6236 61.2804 71.6768 61.2804 71.7072H61.4019L65.7076 74.9876L67.2263 76.1115L67.3478 76.2027C67.8426 76.5821 68.2733 77.0385 68.6236 77.5543C68.7767 77.7758 68.9113 78.0094 69.026 78.253C69.4423 79.0664 69.6609 79.9666 69.6639 80.8804Z" fill="url(#paint0_linear_84_1275)"/>
<path d="M69.6174 40.0414L69.5566 39.9882C68.4892 39.0598 67.1213 38.5499 65.7066 38.553H44.6871C44.1577 38.5535 43.6413 38.7173 43.2084 39.0219C42.7754 39.3265 42.4469 39.7572 42.2675 40.2553C42.0882 40.7534 42.0668 41.2947 42.2063 41.8054C42.3458 42.3161 42.6393 42.7714 43.0469 43.1093L43.1456 43.1852L44.8086 44.4382L44.9757 44.5597L47.3373 46.3366H47.3829L47.8157 46.6555L48.2486 46.9821H48.2865L52.6757 50.2853L53.1921 50.6802L53.5946 50.9764L53.4731 51.0675L51.0127 52.9204L50.8305 53.0571L47.2234 50.422C47.2234 50.422 47.2234 50.3689 47.2234 50.3461H47.1095L42.7052 47.0276L41.1864 45.8962L41.0725 45.8126C40.5777 45.4332 40.147 44.9768 39.7968 44.4609C39.6437 44.2421 39.5091 44.011 39.3943 43.7699C38.988 42.9537 38.7774 42.0542 38.7792 41.1425C38.7783 40.7624 38.8165 40.3833 38.8931 40.011C38.9321 39.8008 38.9828 39.5929 39.045 39.3883L39.1285 39.1605C39.2061 38.9534 39.2948 38.7506 39.3943 38.553C39.8771 37.5548 40.6324 36.7135 41.573 36.1263C42.5136 35.5391 43.6011 35.2299 44.7099 35.2345H63.7626C64.8714 35.2299 65.9589 35.5391 66.8995 36.1263C67.8401 36.7135 68.5954 37.5548 69.0782 38.553C69.1765 38.7475 69.2627 38.9478 69.3364 39.1529L69.4123 39.3731L69.6022 39.9654L69.6174 40.0414Z" fill="url(#paint1_linear_84_1275)"/>
<path d="M71.5697 45.9418L71.509 45.8887C70.4415 44.9602 69.0737 44.4503 67.659 44.4534H46.1079L45.4321 43.9447L45.3106 43.8535L43.6172 42.5702L43.5792 42.5322C43.3722 42.3618 43.2061 42.1471 43.093 41.904C42.98 41.6609 42.923 41.3955 42.9262 41.1274H65.7074C66.9224 41.138 68.1053 41.5187 69.0984 42.2188C70.0915 42.9188 70.8476 43.905 71.266 45.0457L71.3343 45.2736L71.5318 45.8583L71.5697 45.9418Z" fill="#008080"/>
<path d="M73.5814 52.9432C73.5842 53.8526 73.3735 54.7499 72.9663 55.563C72.5667 56.363 71.9933 57.0635 71.288 57.6133L69.6554 58.8359L67.438 60.5141L66.785 61.0077L65.2662 62.1544L65.1675 62.2379L63.7019 63.3314L63.3754 63.5744L60.8998 65.4425L57.6345 67.8877L57.308 68.1307L53.906 70.7049L53.6934 70.8568H48.1803L58.1129 63.3314L67.3773 56.3528L67.5443 56.2389L69.3061 54.91C69.5998 54.6721 69.8377 54.3727 70.003 54.0329C70.1684 53.6931 70.2571 53.3211 70.2629 52.9432C70.2596 52.3932 70.0755 51.8595 69.7389 51.4244C69.5008 51.105 69.1915 50.8453 68.8357 50.6661C68.4798 50.4868 68.0871 50.3929 67.6886 50.3917H53.9591L53.1314 49.769L52.9264 49.6171L49.5624 47.0808H67.6962C68.3387 47.0798 68.9772 47.1823 69.587 47.3846C70.7074 47.7681 71.6864 48.4799 72.3967 49.4273C72.6267 49.7291 72.8275 50.052 72.9966 50.3917C73.0937 50.5919 73.1799 50.7973 73.2548 51.0068L73.3004 51.1814C73.3611 51.3839 73.4143 51.589 73.4599 51.7965C73.5362 52.1741 73.5769 52.558 73.5814 52.9432Z" fill="#008080"/>
<path d="M65.5632 80.881H42.782C41.6731 80.8856 40.5856 80.5764 39.645 79.9892C38.7044 79.402 37.9491 78.5608 37.4664 77.5625C37.3681 77.368 37.2819 77.1677 37.2082 76.9626L37.1322 76.7424L36.9424 76.1501V76.0742L37.0031 76.1273C38.0706 77.0557 39.4384 77.5656 40.8532 77.5625H62.351L63.0193 78.0713L63.1408 78.1624L64.8038 79.423H64.8494C65.0743 79.5931 65.256 79.8137 65.38 80.0669C65.504 80.3202 65.5667 80.599 65.5632 80.881Z" fill="#008080"/>
<path d="M55.5391 72.4441L58.8727 74.9652H40.7693C40.1263 74.9637 39.4879 74.8586 38.8784 74.6539C37.7666 74.2659 36.7962 73.5546 36.0915 72.6112C35.8539 72.3236 35.6453 72.0133 35.4688 71.6847C35.3704 71.4851 35.2842 71.2797 35.2106 71.0696L35.1423 70.857C35.0731 70.6565 35.0198 70.4508 34.9828 70.2419C34.9091 69.8668 34.8735 69.4852 34.8765 69.1029C34.8748 68.1936 35.0854 67.2965 35.4916 66.483C35.6064 66.2419 35.741 66.0108 35.8941 65.792C36.2444 65.2762 36.6751 64.8199 37.1698 64.4403L37.2306 64.3947H37.2913L38.8101 63.2633L41.0274 61.5851L41.354 61.3421L41.6805 61.0991L43.1993 59.9448L43.3056 59.8689L44.4446 58.9273L44.7712 58.6843L45.0901 58.4413L46.6088 57.3174L49.3654 55.2367L50.8841 54.1128L51.5372 53.6192L54.2937 51.5461L54.6202 51.2956L54.8253 51.1437L54.9468 51.0526L55.0683 51.1437H60.3383L50.9373 58.1755L50.6259 58.4185L50.307 58.6539L48.7199 59.8537L47.2011 61.0079L44.4446 63.081L43.4726 63.8404L41.0274 65.6857C40.9814 65.7115 40.9381 65.742 40.8983 65.7768L39.2353 67.0298L39.1366 67.1057C38.729 67.4436 38.4355 67.8988 38.296 68.4095C38.1566 68.9202 38.178 69.4615 38.3573 69.9596C38.5366 70.4577 38.8651 70.8885 39.2981 71.1931C39.7311 71.4977 40.2474 71.6614 40.7768 71.662H54.4911L55.3189 72.2846L55.5315 72.4441H55.5391Z" fill="#008080"/>
<path d="M69.1167 51.8574L43.8979 70.8418H40.7693C40.3901 70.8429 40.0204 70.7232 39.7138 70.5001C39.5709 70.3939 39.4432 70.2687 39.3341 70.128L64.5529 51.1816H67.6891C67.9629 51.1777 68.2339 51.2366 68.4814 51.3538C68.7289 51.4709 68.9462 51.6432 69.1167 51.8574Z" fill="#008080"/>
<path d="M90.84 74.8967V71.7651L105.114 51.2779H90.7585V47.0502H111.371V50.1819L97.1095 70.6628H111.427V74.8905L90.84 74.8967Z" fill="#004C4C"/>
<path d="M121.392 47.0502V74.8967H116.382V47.0502H121.392Z" fill="#004C4C"/>
<path d="M149.758 47.0502V74.8967H145.249L132.096 55.9253H131.864V74.8967H126.853V47.0502H131.369L144.491 66.0091H144.735V47.0502H149.758Z" fill="#004C4C"/>
<path d="M160.281 47.0502V74.8967H155.233V47.0502H160.281Z" fill="#004C4C"/>
<path d="M190.639 60.9986C190.715 63.6649 190.139 66.3094 188.961 68.7024C187.934 70.7352 186.351 72.434 184.395 73.6003C182.394 74.7194 180.139 75.3069 177.846 75.3069C175.554 75.3069 173.299 74.7194 171.298 73.6003C169.344 72.4296 167.761 70.7293 166.732 68.6962C165.554 66.3053 164.978 63.6629 165.054 60.9986C164.978 58.3323 165.554 55.6878 166.732 53.2948C167.759 51.2603 169.342 49.5595 171.298 48.3906C173.301 47.2773 175.555 46.6931 177.846 46.6931C180.138 46.6931 182.392 47.2773 184.395 48.3906C186.352 49.5579 187.936 51.2591 188.961 53.2948C190.139 55.6878 190.715 58.3323 190.639 60.9986ZM185.572 60.9986C185.625 59.1657 185.288 57.3425 184.583 55.6498C184.019 54.3038 183.071 53.1536 181.858 52.3428C180.649 51.6091 179.261 51.2212 177.846 51.2212C176.432 51.2212 175.044 51.6091 173.835 52.3428C172.622 53.1536 171.674 54.3038 171.11 55.6498C170.405 57.3425 170.068 59.1657 170.121 60.9986C170.068 62.8315 170.405 64.6547 171.11 66.3474C171.678 67.6908 172.625 68.8398 173.835 69.6544C175.044 70.3881 176.432 70.776 177.846 70.776C179.261 70.776 180.649 70.3881 181.858 69.6544C183.068 68.8398 184.015 67.6908 184.583 66.3474C185.288 64.6547 185.625 62.8315 185.572 60.9986Z" fill="#004C4C"/>
<defs>
<linearGradient id="paint0_linear_84_1275" x1="46.1841" y1="90.7143" x2="64.0597" y2="72.831" gradientUnits="userSpaceOnUse">
<stop offset="0.33" stop-color="#66B2B2"/>
<stop offset="0.84"/>
</linearGradient>
<linearGradient id="paint1_linear_84_1275" x1="44.391" y1="49.1767" x2="62.2742" y2="31.301" gradientUnits="userSpaceOnUse">
<stop offset="0.16"/>
<stop offset="0.67" stop-color="#66B2B2"/>
</linearGradient>
</defs>
</svg>
