<svg width="24" height="24" class="stroke-current fill-current text-primary-300" viewBox="0 0 24 24" fill="none" xmlns="http://www.w3.org/2000/svg">
<path d="M12.9942 4.75C13.4084 4.75 13.7442 4.41421 13.7442 4C13.7442 3.58579 13.4084 3.25 12.9942 3.25V4.75ZM5.47217 19.3573L5.84003 18.7037L5.84003 18.7037L5.47217 19.3573ZM3.4461 10.8995L2.70323 10.7963L3.4461 10.8995ZM3.27137 16.8297L3.96935 16.5552L3.96935 16.5552L3.27137 16.8297ZM21.661 10.7963C21.6041 10.386 21.2253 10.0996 20.815 10.1566C20.4047 10.2136 20.1183 10.5924 20.1753 11.0026L21.661 10.7963ZM21.0929 16.8297L21.7909 17.1041L21.7909 17.1041L21.0929 16.8297ZM18.8921 19.3573L18.5242 18.7037L18.5242 18.7037L18.8921 19.3573ZM6.67429 4.45483L6.36175 3.77306L6.36175 3.77306L6.67429 4.45483ZM4.19857 7L3.49887 6.72997L3.49887 6.72997L4.19857 7ZM4.54259 6.31092L3.91029 5.90756L4.54259 6.31092ZM4.98973 7.7368L5.52006 7.20647L5.51063 7.19704L5.50087 7.18795L4.98973 7.7368ZM17.5181 10.3827C17.8176 10.0965 17.8284 9.62178 17.5423 9.3223C17.2561 9.02282 16.7814 9.01201 16.4819 9.29816L17.5181 10.3827ZM11.37 4.75H12.9942V3.25H11.37V4.75ZM12.9942 19.25H11.37V20.75H12.9942V19.25ZM11.37 19.25C9.77155 19.25 8.62038 19.2494 7.72456 19.1724C6.83612 19.0961 6.27661 18.9494 5.84003 18.7037L5.10431 20.0109C5.8097 20.4079 6.61384 20.5825 7.59619 20.6669C8.57117 20.7506 9.79795 20.75 11.37 20.75V19.25ZM2.70323 10.7963C2.48696 12.3534 2.31755 13.5685 2.26637 14.5457C2.2148 15.5303 2.27718 16.3508 2.57338 17.1041L3.96935 16.5552C3.78602 16.089 3.71768 15.5146 3.76432 14.6241C3.81134 13.7262 3.96906 12.5859 4.18897 11.0026L2.70323 10.7963ZM5.84003 18.7037C4.98787 18.2241 4.32718 17.4652 3.96935 16.5552L2.57338 17.1041C3.05751 18.3353 3.95139 19.362 5.10431 20.0109L5.84003 18.7037ZM20.1753 11.0026C20.3952 12.5859 20.5529 13.7262 20.5999 14.6241C20.6466 15.5146 20.5782 16.089 20.3949 16.5552L21.7909 17.1041C22.0871 16.3508 22.1495 15.5303 22.0979 14.5457C22.0467 13.5685 21.8773 12.3534 21.661 10.7963L20.1753 11.0026ZM12.9942 20.75C14.5663 20.75 15.7931 20.7506 16.7681 20.6669C17.7504 20.5825 18.5546 20.4079 19.26 20.0109L18.5242 18.7037C18.0877 18.9494 17.5281 19.0961 16.6397 19.1724C15.7439 19.2494 14.5927 19.25 12.9942 19.25V20.75ZM20.3949 16.5552C20.0371 17.4652 19.3764 18.2241 18.5242 18.7037L19.26 20.0109C20.4129 19.362 21.3068 18.3353 21.7909 17.1041L20.3949 16.5552ZM11.37 3.25C10.147 3.25 9.18756 3.24949 8.41098 3.30905C7.62503 3.36933 6.9703 3.49408 6.36175 3.77306L6.98683 5.13661C7.37045 4.96075 7.82906 4.85809 8.52568 4.80466C9.23166 4.75051 10.124 4.75 11.37 4.75V3.25ZM4.18897 11.0026C4.45672 9.07477 4.60786 8.02255 4.89828 7.27003L3.49887 6.72997C3.13038 7.6848 2.95959 8.9505 2.70323 10.7963L4.18897 11.0026ZM4.89828 7.27003C4.9799 7.05852 5.0705 6.87792 5.17489 6.71429L3.91029 5.90756C3.74645 6.1644 3.61237 6.43586 3.49887 6.72997L4.89828 7.27003ZM6.36175 3.77306C5.35631 4.23397 4.50514 4.97509 3.91029 5.90756L5.17489 6.71429C5.61456 6.02507 6.24368 5.47729 6.98683 5.13661L6.36175 3.77306ZM5.50087 7.18795L4.70971 6.45115L3.68743 7.54885L4.47858 8.28565L5.50087 7.18795ZM4.4594 8.26713C6.11107 9.9188 7.40205 11.212 8.54367 12.0831C9.7026 12.9673 10.7953 13.4868 12.0608 13.4868V11.9868C11.2552 11.9868 10.479 11.673 9.45355 10.8905C8.41074 10.0949 7.20171 8.88813 5.52006 7.20647L4.4594 8.26713ZM16.4819 9.29816C14.4408 11.2483 13.3006 11.9868 12.0608 11.9868V13.4868C13.9736 13.4868 15.5174 12.2943 17.5181 10.3827L16.4819 9.29816ZM20.25 5C20.25 5.69036 19.6904 6.25 19 6.25V7.75C20.5188 7.75 21.75 6.51878 21.75 5H20.25ZM19 6.25C18.3096 6.25 17.75 5.69036 17.75 5H16.25C16.25 6.51878 17.4812 7.75 19 7.75V6.25ZM17.75 5C17.75 4.30964 18.3096 3.75 19 3.75V2.25C17.4812 2.25 16.25 3.48122 16.25 5H17.75ZM19 3.75C19.6904 3.75 20.25 4.30964 20.25 5H21.75C21.75 3.48122 20.5188 2.25 19 2.25V3.75Z" />
</svg>
