<svg width="24" height="24" class="stroke-current fill-current text-primary-300" viewBox="0 0 24 24" fill="none" xmlns="http://www.w3.org/2000/svg">
<path d="M20.0785 6.79014C20.4687 7.66325 20.634 8.8534 20.9182 10.8995C21.3543 14.0399 21.5724 15.6101 21.0929 16.8297C20.6719 17.9003 19.8946 18.793 18.8921 19.3573C17.7501 20 16.1648 20 12.9942 20H11.37C8.19944 20 6.61414 20 5.47217 19.3573C4.46963 18.793 3.69234 17.9003 3.27137 16.8297C2.79184 15.6101 3.00992 14.0399 3.4461 10.8995C3.71218 8.98369 3.87404 7.81829 4.21385 6.96093M20.0785 6.79014C20.0023 6.61965 19.9176 6.46125 19.8217 6.31092C19.3044 5.50008 18.5643 4.85563 17.69 4.45483C16.6978 4 15.4633 4 12.9942 4H11.37C8.90098 4 7.66645 4 6.67429 4.45483C5.8 4.85563 5.05985 5.50008 4.54259 6.31092C4.41542 6.51027 4.30783 6.72382 4.21385 6.96093M20.0785 6.79014L19.99 6.87868L19.1319 7.7368C15.7985 11.0701 14.1319 12.7368 12.0608 12.7368C9.98973 12.7368 8.32306 11.0701 4.98973 7.7368L4.21385 6.96093" stroke="#004C4C" stroke-width="1.5"/>
</svg>
