<svg width="24" height="24" class="stroke-current fill-current text-primary-300" viewBox="0 0 24 24" fill="none" xmlns="http://www.w3.org/2000/svg">
<path d="M14.2118 18.2443L13.6216 17.7815L13.6216 17.7815L14.2118 18.2443ZM9.9755 18.2443L9.38533 18.7071L9.9755 18.2443ZM12.0936 20L12.0936 19.25L12.0936 20ZM17.4373 10.5573C17.4373 11.4422 16.971 12.6576 16.2065 14.0092C15.4586 15.3315 14.49 16.6741 13.6216 17.7815L14.802 18.7071C15.6929 17.5709 16.7121 16.1621 17.5121 14.7477C18.2955 13.3627 18.9373 11.8564 18.9373 10.5573H17.4373ZM10.5657 17.7815C9.69728 16.6741 8.7287 15.3315 7.9808 14.0092C7.21629 12.6576 6.75 11.4422 6.75 10.5573H5.25C5.25 11.8564 5.89178 13.3627 6.67519 14.7477C7.4752 16.1621 8.49437 17.5709 9.38533 18.7071L10.5657 17.7815ZM6.75 10.5573C6.75 7.29727 9.19328 4.75 12.0936 4.75V3.25C8.26316 3.25 5.25 6.57433 5.25 10.5573H6.75ZM12.0936 4.75C14.994 4.75 17.4373 7.29727 17.4373 10.5573H18.9373C18.9373 6.57433 15.9241 3.25 12.0936 3.25V4.75ZM13.6216 17.7815C13.1462 18.3877 12.8464 18.766 12.5822 19.0059C12.3502 19.2167 12.2219 19.25 12.0936 19.25L12.0936 20.75C12.7068 20.75 13.1786 20.4907 13.5908 20.1162C13.9709 19.7709 14.3595 19.2714 14.802 18.7071L13.6216 17.7815ZM9.38533 18.7071C9.82783 19.2714 10.2164 19.7709 10.5965 20.1162C11.0087 20.4907 11.4805 20.75 12.0936 20.75L12.0936 19.25C11.9654 19.25 11.8371 19.2167 11.6051 19.0059C11.3409 18.766 11.0411 18.3877 10.5657 17.7815L9.38533 18.7071ZM9.05853 10.8554C9.05853 12.5316 10.4174 13.8905 12.0936 13.8905V12.3905C11.2458 12.3905 10.5585 11.7032 10.5585 10.8554H9.05853ZM12.0936 13.8905C13.7699 13.8905 15.1288 12.5316 15.1288 10.8554H13.6288C13.6288 11.7032 12.9415 12.3905 12.0936 12.3905V13.8905ZM15.1288 10.8554C15.1288 9.17911 13.7699 7.82024 12.0936 7.82024V9.32024C12.9415 9.32024 13.6288 10.0075 13.6288 10.8554H15.1288ZM12.0936 7.82024C10.4174 7.82024 9.05853 9.17911 9.05853 10.8554H10.5585C10.5585 10.0075 11.2458 9.32024 12.0936 9.32024V7.82024Z" />
</svg>
