<svg width="24" height="24" class="stroke-current fill-current text-primary-300" viewBox="0 0 24 24" fill="none" xmlns="http://www.w3.org/2000/svg">
<path d="M9.33333 5C8.39506 5 7.45679 5.2963 6.66667 5.88889L4.71111 7.35556C4.26346 7.6913 4 8.21821 4 8.77778V16.448C4 17.8657 5.61852 18.675 6.75269 17.8244C7.51732 17.2509 8.42533 16.9642 9.33333 16.9642M9.33333 5C10.2716 5 11.2099 5.2963 12 5.88889L12.086 5.95341C12.8507 6.52688 13.7587 6.81362 14.6667 6.81362M9.33333 5V5.66667V16.3333V16.9642M14.6667 6.81362C15.5747 6.81362 16.4827 6.52688 17.2473 5.95341C18.3815 5.10278 20 5.91204 20 7.32975V15C20 15.5596 19.7365 16.0865 19.2889 16.4222L17.3333 17.8889C16.5432 18.4815 15.6049 18.7778 14.6667 18.7778M14.6667 6.81362V7.44444V18.1111V18.7778M14.6667 18.7778C13.7284 18.7778 12.7901 18.4815 12 17.8889L11.914 17.8244C11.1493 17.2509 10.2413 16.9642 9.33333 16.9642" stroke="#004C4C" stroke-width="1.5" stroke-linecap="round"/>
</svg>
