<svg width="24" height="24" class="stroke-current fill-current text-primary-300" viewBox="0 0 24 24" fill="none" xmlns="http://www.w3.org/2000/svg">
<path d="M8.8 12L8.05 12L8.8 12ZM15.2 12L15.95 12L15.2 12ZM12 15.2L12 15.95L12 15.2ZM13.6555 19.8285L13.81 20.5624L13.6555 19.8285ZM10.3445 19.8285L10.19 20.5624L10.3445 19.8285ZM4.59089 8.97696L3.89657 8.69337L3.89657 8.69337L4.59089 8.97696ZM4.17151 13.6555L3.43758 13.81L4.17151 13.6555ZM10.3445 4.17151L10.19 3.43758L10.3445 4.17151ZM13.6555 4.17151L13.81 3.43758L13.6555 4.17151ZM19.3447 9.00582L19.127 8.28811L19.3447 9.00582ZM4.65437 9.00553L4.87207 8.28782L4.65437 9.00553ZM18.7156 9.26252C19.0599 10.1062 19.25 11.03 19.25 12H20.75C20.75 10.8323 20.5209 9.71626 20.1044 8.69576L18.7156 9.26252ZM19.25 12C19.25 12.5154 19.1963 13.0174 19.0946 13.5011L20.5624 13.81C20.6854 13.2253 20.75 12.6198 20.75 12H19.25ZM19.0946 13.5011C18.5056 16.2999 16.2999 18.5056 13.5011 19.0946L13.81 20.5624C17.1906 19.8511 19.8511 17.1906 20.5624 13.81L19.0946 13.5011ZM13.5011 19.0946C13.0174 19.1963 12.5154 19.25 12 19.25V20.75C12.6198 20.75 13.2253 20.6854 13.81 20.5624L13.5011 19.0946ZM12 19.25C11.4846 19.25 10.9826 19.1963 10.4989 19.0946L10.19 20.5624C10.7747 20.6854 11.3802 20.75 12 20.75V19.25ZM4.75 12C4.75 11.0292 4.9404 10.1047 5.28521 9.26054L3.89657 8.69337C3.47949 9.71452 3.25 10.8314 3.25 12H4.75ZM10.4989 19.0946C7.70013 18.5056 5.49435 16.2999 4.90543 13.5011L3.43758 13.81C4.14894 17.1906 6.80936 19.8511 10.19 20.5624L10.4989 19.0946ZM4.90543 13.5011C4.80366 13.0174 4.75 12.5154 4.75 12H3.25C3.25 12.6198 3.31456 13.2253 3.43758 13.81L4.90543 13.5011ZM5.28521 9.26054C6.18293 7.06259 8.12904 5.4041 10.4989 4.90543L10.19 3.43758C7.32554 4.04033 4.97955 6.04184 3.89657 8.69337L5.28521 9.26054ZM10.4989 4.90543C10.9826 4.80366 11.4846 4.75 12 4.75V3.25C11.3802 3.25 10.7747 3.31456 10.19 3.43758L10.4989 4.90543ZM12 4.75C12.5154 4.75 13.0174 4.80366 13.5011 4.90543L13.81 3.43758C13.2253 3.31456 12.6198 3.25 12 3.25V4.75ZM13.5011 4.90543C15.8717 5.40425 17.8182 7.06359 18.7156 9.26252L20.1044 8.69576C19.0219 6.04305 16.6753 4.04051 13.81 3.43758L13.5011 4.90543ZM12.941 4.39949C13.1613 5.09 13.975 7.7404 14.3081 10.1714L15.7942 9.96785C15.4425 7.40082 14.5945 4.64695 14.37 3.94352L12.941 4.39949ZM14.3081 10.1714C14.3972 10.8223 14.45 11.4443 14.45 12L15.95 12C15.95 11.3556 15.8893 10.662 15.7942 9.96785L14.3081 10.1714ZM19.127 8.28811C18.2514 8.55369 16.6083 9.01958 14.915 9.3321L15.1872 10.8072C16.9596 10.4801 18.663 9.9963 19.5624 9.72354L19.127 8.28811ZM14.915 9.3321C13.8872 9.52179 12.8668 9.65 12 9.65L12 11.15C12.9963 11.15 14.1173 11.0047 15.1872 10.8072L14.915 9.3321ZM14.45 12C14.45 12.824 14.3341 13.7876 14.1593 14.7655L15.6358 15.0296C15.8184 14.0087 15.95 12.9483 15.95 12L14.45 12ZM14.1593 14.7655C13.7761 16.9087 13.1317 19.0028 12.941 19.6005L14.37 20.0565C14.567 19.4391 15.2351 17.2707 15.6358 15.0296L14.1593 14.7655ZM19.6005 12.941C19.0028 13.1317 16.9087 13.7761 14.7655 14.1593L15.0296 15.6358C17.2707 15.2351 19.4391 14.567 20.0565 14.37L19.6005 12.941ZM14.7655 14.1593C13.7876 14.3341 12.824 14.45 12 14.45L12 15.95C12.9483 15.95 14.0087 15.8184 15.0296 15.6358L14.7655 14.1593ZM12 14.45C11.176 14.45 10.2124 14.3341 9.23446 14.1593L8.97045 15.6358C9.99125 15.8184 11.0517 15.95 12 15.95L12 14.45ZM9.23446 14.1593C7.09129 13.7761 4.9972 13.1317 4.39949 12.941L3.94352 14.37C4.56092 14.567 6.72927 15.2351 8.97045 15.6358L9.23446 14.1593ZM8.05 12C8.05 12.9483 8.18164 14.0087 8.36416 15.0296L9.84074 14.7655C9.66589 13.7876 9.55 12.824 9.55 12L8.05 12ZM8.36416 15.0296C8.76488 17.2707 9.43297 19.4391 9.62997 20.0565L11.059 19.6005C10.8683 19.0028 10.2239 16.9087 9.84074 14.7655L8.36416 15.0296ZM9.62997 3.94352C9.40552 4.64695 8.55749 7.40082 8.20582 9.96785L9.69194 10.1714C10.025 7.7404 10.8387 5.09 11.059 4.39949L9.62997 3.94352ZM8.20582 9.96785C8.11072 10.662 8.05 11.3556 8.05 12L9.55 12C9.55 11.4443 9.60278 10.8223 9.69194 10.1714L8.20582 9.96785ZM12 9.65C11.1332 9.65 10.1128 9.52179 9.085 9.3321L8.81276 10.8072C9.88268 11.0047 11.0037 11.15 12 11.15L12 9.65ZM9.085 9.3321C7.39105 9.01947 5.74746 8.55335 4.87207 8.28782L4.43667 9.72324C5.33575 9.99596 7.03975 10.48 8.81276 10.8072L9.085 9.3321ZM19.0644 8.31353C19.0829 8.3039 19.1042 8.29503 19.127 8.28811L19.5624 9.72354C19.6307 9.70282 19.6949 9.67629 19.7556 9.64476L19.0644 8.31353ZM4.19959 9.61679C4.2723 9.66126 4.35142 9.69738 4.43667 9.72324L4.87207 8.28782C4.91236 8.30004 4.94956 8.31717 4.98218 8.33712L4.19959 9.61679Z" />
</svg>
