<svg width="24" height="24" class="stroke-current fill-current text-primary-300" viewBox="0 0 24 24" fill="none" xmlns="http://www.w3.org/2000/svg">
<g clip-path="url(#clip0_1_1307)">
<path d="M12.3477 9.9259C13.0165 10.5947 13.0165 11.679 12.3477 12.3478C11.6789 13.0166 10.5946 13.0166 9.92583 12.3478C9.25704 11.679 9.25704 10.5947 9.92583 9.9259C10.5946 9.25712 11.6789 9.25712 12.3477 9.9259Z" />
<path d="M6.46375 16.4326L6.09321 17.0846L6.09321 17.0846L6.46375 16.4326ZM4.14971 14.9224L3.62328 15.4566L4.14971 14.9224ZM2.78606 9.51652L3.53386 9.5739L2.78606 9.51652ZM2.74431 12.2794L3.48154 12.1417L2.74431 12.2794ZM14.6128 18.03L14.2133 17.3953L14.6128 18.03ZM8.34159 17.4996L8.71213 16.8476L8.71213 16.8476L8.34159 17.4996ZM10.5039 18.5853L10.2871 19.3033L10.5039 18.5853ZM17.4997 8.34158L18.1517 7.97104L18.1517 7.97104L17.4997 8.34158ZM18.5853 10.5038L19.3033 10.2871L18.5853 10.5038ZM18.03 14.6128L17.3953 14.2132L17.3953 14.2132L18.03 14.6128ZM9.51654 2.78605L9.57392 3.53385L9.51654 2.78605ZM12.2795 2.74429L12.1417 3.48153L12.2795 2.74429ZM16.4326 6.46374L15.7805 6.83428L15.7805 6.83428L16.4326 6.46374ZM14.9224 4.14969L15.4566 3.62326L15.4566 3.62326L14.9224 4.14969ZM5.95644 3.32601L6.25143 4.01556L6.25143 4.01556L5.95644 3.32601ZM3.32602 5.95643L4.01558 6.25142L4.01558 6.25142L3.32602 5.95643ZM12.918 19.0431L13.4483 18.5128L13.4483 18.5128L12.918 19.0431ZM5.00704 3.94628C4.71414 3.65339 4.23927 3.65339 3.94638 3.94628C3.65348 4.23918 3.65348 4.71405 3.94638 5.00694L5.00704 3.94628ZM9.39561 10.4562C9.6885 10.7491 10.1634 10.7491 10.4563 10.4562C10.7492 10.1633 10.7492 9.6884 10.4563 9.39551L9.39561 10.4562ZM18.7524 12.6274L18.0094 12.5257L18.7524 12.6274ZM12.6274 18.7524L12.5256 18.0094L12.6274 18.7524ZM15.7805 6.83428L16.8476 8.71212L18.1517 7.97104L17.0846 6.0932L15.7805 6.83428ZM8.71213 16.8476L6.83429 15.7805L6.09321 17.0846L7.97105 18.1517L8.71213 16.8476ZM6.83429 15.7805C5.56662 15.0601 5.05713 14.7636 4.67613 14.3882L3.62328 15.4566C4.17827 16.0035 4.89948 16.4063 6.09321 17.0846L6.83429 15.7805ZM2.03826 9.45914C1.93321 10.8281 1.86394 11.6513 2.00707 12.4172L3.48154 12.1417C3.38329 11.6159 3.42231 11.0277 3.53386 9.5739L2.03826 9.45914ZM4.67613 14.3882C4.05787 13.7789 3.64099 12.9949 3.48154 12.1417L2.00707 12.4172C2.22279 13.5716 2.78681 14.6323 3.62328 15.4566L4.67613 14.3882ZM15.879 15.879C14.9712 16.7869 14.5996 17.1521 14.2133 17.3953L15.0124 18.6647C15.5759 18.3099 16.0853 17.7941 16.9397 16.9397L15.879 15.879ZM7.97105 18.1517C9.02155 18.7487 9.64965 19.1108 10.2871 19.3033L10.7206 17.8673C10.2836 17.7353 9.82836 17.4819 8.71213 16.8476L7.97105 18.1517ZM16.8476 8.71212C17.4819 9.82835 17.7354 10.2836 17.8673 10.7206L19.3033 10.2871C19.1108 9.64963 18.7487 9.02153 18.1517 7.97104L16.8476 8.71212ZM16.9397 16.9397C17.7941 16.0853 18.3099 15.5759 18.6647 15.0124L17.3953 14.2132C17.1521 14.5995 16.7869 14.9712 15.879 15.879L16.9397 16.9397ZM9.57392 3.53385C11.0277 3.4223 11.6159 3.38327 12.1417 3.48153L12.4172 2.00705C11.6513 1.86392 10.8281 1.9332 9.45916 2.03825L9.57392 3.53385ZM17.0846 6.0932C16.4063 4.89947 16.0035 4.17826 15.4566 3.62326L14.3882 4.67612C14.7636 5.05712 15.0601 5.56661 15.7805 6.83428L17.0846 6.0932ZM12.1417 3.48153C12.9949 3.64097 13.7789 4.05786 14.3882 4.67612L15.4566 3.62326C14.6323 2.78679 13.5716 2.22277 12.4172 2.00705L12.1417 3.48153ZM9.45916 2.03825C7.65034 2.17704 6.56353 2.25055 5.66146 2.63646L6.25143 4.01556C6.86921 3.75128 7.64918 3.68154 9.57392 3.53385L9.45916 2.03825ZM3.53386 9.5739C3.68156 7.64917 3.75129 6.8692 4.01558 6.25142L2.63647 5.66144C2.25057 6.56351 2.17706 7.65032 2.03826 9.45914L3.53386 9.5739ZM5.66146 2.63646C4.3016 3.2182 3.21822 4.30159 2.63647 5.66144L4.01558 6.25142C4.44556 5.24631 5.24632 4.44555 6.25143 4.01556L5.66146 2.63646ZM14.6241 19.6885L13.4483 18.5128L12.3877 19.5734L13.5634 20.7492L14.6241 19.6885ZM18.5127 13.4484L19.6885 14.6241L20.7492 13.5635L19.5734 12.3877L18.5127 13.4484ZM19.6885 19.6885C18.29 21.087 16.0226 21.087 14.6241 19.6885L13.5634 20.7492C15.5477 22.7335 18.7649 22.7335 20.7491 20.7492L19.6885 19.6885ZM20.7491 20.7492C22.7334 18.7649 22.7334 15.5478 20.7492 13.5635L19.6885 14.6241C21.087 16.0226 21.087 18.29 19.6885 19.6885L20.7491 20.7492ZM3.94638 5.00694L9.39561 10.4562L10.4563 9.39551L5.00704 3.94628L3.94638 5.00694ZM17.8673 10.7206C18.0458 11.3119 18.0913 11.9274 18.0094 12.5257L19.4955 12.7292C19.6063 11.9199 19.5448 11.0871 19.3033 10.2871L17.8673 10.7206ZM18.0094 12.5257C17.9281 13.1189 17.7216 13.6949 17.3953 14.2132L18.6647 15.0124C19.1062 14.3111 19.3856 13.5317 19.4955 12.7292L18.0094 12.5257ZM19.5734 12.3877L19.2828 12.0971L18.2221 13.1578L18.5127 13.4484L19.5734 12.3877ZM14.2133 17.3953C13.6949 17.7216 13.1189 17.9281 12.5256 18.0094L12.7291 19.4955C13.5316 19.3856 14.3111 19.1062 15.0124 18.6647L14.2133 17.3953ZM12.5256 18.0094C11.9274 18.0913 11.3119 18.0458 10.7206 17.8673L10.2871 19.3033C11.087 19.5448 11.9199 19.6063 12.7291 19.4955L12.5256 18.0094ZM13.4483 18.5128L13.1577 18.2221L12.097 19.2828L12.3877 19.5734L13.4483 18.5128Z" />
</g>
<defs>
<clipPath id="clip0_1_1307">
<rect width="24" height="24" class="stroke-current fill-current text-primary-300" fill="white"/>
</clipPath>
</defs>
</svg>
